<?xml version="1.0" encoding="utf-8"?>
<!-- Generator: Adobe Illustrator 26.0.0, SVG Export Plug-In . SVG Version: 6.00 Build 0)  -->
<svg version="1.1" id="Layer_2" xmlns="http://www.w3.org/2000/svg" xmlns:xlink="http://www.w3.org/1999/xlink" x="0px" y="0px"
	 viewBox="0 0 1073.6 310.4" style="enable-background:new 0 0 1073.6 310.4;" xml:space="preserve">
<style type="text/css">
	.st0{fill:#5F6DED;}
	.st1{fill:#8FAEF2;}
	.st2{fill:#5A7EE2;}
	.st3{fill:#E19178;}
	.st4{fill:#CB836D;}
	.st5{fill:#FFE19F;}
</style>
<g>
	<polygon class="st0" points="586.6,26.54 579.97,28 593.06,48.64 569.19,53.92 582.29,74.56 558.42,79.84 571.51,100.48 
		564.91,101.94 924.57,251.13 954.49,179.13 	"/>
	<polygon class="st0" points="491.82,96.91 467.95,91.63 481.05,70.99 457.18,65.71 470.27,45.07 446.4,39.79 450.06,34.02 
		68.3,193.04 98.23,265.04 488.22,102.59 	"/>
	<polygon class="st1" points="579.97,28 593.06,48.64 588.97,49.55 946.41,198.12 954.33,179.07 587.1,26.43 	"/>
	<polygon class="st1" points="470.29,45.12 446.4,39.79 450.06,34.02 68.24,192.9 75.99,211.52 467.87,48.85 	"/>
	<polygon class="st2" points="491.82,96.91 467.95,91.63 465.78,92.39 91.85,249.69 98.24,265.06 487.54,102.9 	"/>
	<polygon class="st2" points="558.82,79.75 558.42,79.84 571.51,100.48 564.86,101.95 924.57,251.13 932.17,232.84 	"/>
	<path class="st3" d="M35.72,273.38L18.14,231.1c-3.33-8,0.16-17.49,7.54-20.56l43.26-17.98l29.93,71.99l-42.5,18.34
		C48.22,285.61,38.75,282.17,35.72,273.38z"/>
	<path class="st4" d="M51.81,271.91c-7.39,3.07-17.36-1.58-20.72-9.66L18.14,231.1l0,0l17.75,42.7c3.36,8.08,13.33,12.73,21.01,8.86
		l42.21-17.54l-5.08-10.74L51.81,271.91z"/>
	<path class="st5" d="M924.57,251.13l133.09,13.1l-103.16-85.1L924.57,251.13z"/>
	<path d="M1011.32,244.98l13.86,16.21l32.94,3.24l-25.48-21.02L1011.32,244.98z"/>
</g>
</svg>
