<?xml version="1.0" encoding="utf-8"?>
<!-- Generator: Adobe Illustrator 26.0.0, SVG Export Plug-In . SVG Version: 6.00 Build 0)  -->
<svg version="1.1" id="Layer_1" xmlns="http://www.w3.org/2000/svg" xmlns:xlink="http://www.w3.org/1999/xlink" x="0px" y="0px"
	 viewBox="0 0 362.83 362.83" style="enable-background:new 0 0 362.83 362.83;" xml:space="preserve">
<style type="text/css">
	.st0{fill:#DC3545;}
	.st1{fill:#FFFFFF;}
</style>
<path class="st0" d="M188.13,351.36c-5.09,0-10.18,0-15.28,0c-1.08-0.2-2.15-0.49-3.24-0.58c-18.56-1.61-36.02-6.97-52.22-16.03
	c-26.15-14.64-45.87-35.5-58.45-62.79c-15.6-33.86-16.93-68.24-2.87-102.94c3.55-8.76,8.25-16.93,15.33-23.41
	c8.73-7.99,20.4-5.51,24.97,5.17c0.48,1.12,0.83,2.3,1.42,3.36c3.44,6.16,6.73,12.42,10.56,18.33c1.03,1.59,4.36,3.34,5.61,2.77
	c1.9-0.86,3.6-3.52,4.13-5.72c0.86-3.61,0.98-7.46,0.92-11.21c-0.21-12.49-0.5-24.99-1.02-37.48c-0.81-19.46,1.35-38.41,9.04-56.49
	c7.37-17.34,18.85-31.07,35.43-40.34c17.01-9.5,35.51-12.53,54.65-12.52c7.31,0,11.65,7.1,8.9,13.88c-1.24,3.07-2.79,6.03-3.87,9.15
	c-6.99,20.12-5.51,39.31,6.47,57.34c6.56,9.87,15.21,17.53,25.14,23.74c16.26,10.17,30,22.97,41.09,38.6
	c11.59,16.32,19.78,34.15,21.26,54.29c1.86,25.19-3.28,49.26-15.6,71.27c-21.63,38.66-54.24,62.46-98.3,69.81
	C197.56,350.32,192.83,350.76,188.13,351.36z"/>
<g>
	<path class="st1" d="M90.87,202.41c2.34-4.69,4.42-5.62,11.2-4.85c0,0.71,0,1.45,0,2.19c0,25.87,0.01,51.75-0.01,77.62
		c0,4.25,0.92,8.16,3.67,11.52c3.2,3.92,7.34,5.86,12.38,6.24c5.98,0.45,12.01,0.76,17.91,1.77c10.22,1.75,19.71,5.47,27.93,11.99
		c1,0.8,1.95,1.66,3.22,2.74c-3.84-0.67-7.26-1.36-10.71-1.84c-10.19-1.41-20.45-1.77-30.67-0.62c-8.82,0.99-17.58,2.51-26.35,3.91
		c-4.22,0.67-6.48-0.53-8.56-4.91C90.87,272.92,90.87,237.67,90.87,202.41z"/>
	<path class="st1" d="M176.34,306.4c-1.42-1.31-2.58-2.44-3.81-3.5c-10.55-9.14-22.97-14.17-36.62-16.23
		c-5.51-0.83-11.12-1.12-16.69-1.49c-4.61-0.3-7.11-2.77-7.11-7.44c-0.01-31.83-0.01-63.65,0-95.48c0-4.87,2.83-7.41,7.71-7.27
		c9.11,0.26,18.07,1.4,26.73,4.39c11.71,4.03,21.45,10.71,28.23,21.24c0.91,1.41,1.57,3.27,1.57,4.92
		c0.09,33.18,0.07,66.36,0.07,99.54C176.41,305.41,176.38,305.74,176.34,306.4z"/>
	<path class="st1" d="M186.42,306.16c0-0.85,0-1.55,0-2.26c0-31.77,0.09-63.53-0.1-95.3c-0.03-4.75,1.58-8.36,4.42-11.85
		c8.93-10.99,20.75-17.04,34.35-19.71c6.09-1.19,12.37-1.55,18.58-2.03c4.3-0.33,7.06,2.64,7.06,7.18c0.01,17.74,0,35.48,0,53.22
		c0,13.97,0,27.94,0,41.9c0,5.29-2.41,7.74-7.76,7.84c-11.33,0.21-22.38,1.89-33,6c-8.28,3.21-15.72,7.74-22.08,13.97
		c-0.29,0.29-0.59,0.57-0.9,0.85C186.91,306.05,186.77,306.06,186.42,306.16z"/>
	<path class="st1" d="M195.44,311.42c3.43-2.4,6.4-4.8,9.66-6.71c10.72-6.27,22.5-8.75,34.77-9.4c2.82-0.15,5.72-0.08,8.42-0.77
		c7.96-2.04,12.46-8.38,12.46-17.09c0.01-25.88,0-51.76,0-77.64c0-0.75,0-1.5,0-2.33c2.1,0,3.99-0.17,5.84,0.04
		c2.77,0.31,4.97,2.78,5.3,5.62c0.05,0.47,0.05,0.94,0.05,1.41c0,33.84,0.01,67.67,0,101.51c0,4.22-2.57,7.2-6.34,7.2
		c-1.39,0-2.8-0.35-4.18-0.64c-15.52-3.33-31.21-4.81-47.06-3.66C208.24,309.42,202.15,310.54,195.44,311.42z"/>
</g>
</svg>
